<?xml version="1.0" encoding="UTF-8" standalone="no"?>
<!-- Created with Inkscape (http://www.inkscape.org/) -->

<svg
   xmlns:dc="http://purl.org/dc/elements/1.1/"
   xmlns:cc="http://creativecommons.org/ns#"
   xmlns:rdf="http://www.w3.org/1999/02/22-rdf-syntax-ns#"
   xmlns:svg="http://www.w3.org/2000/svg"
   xmlns="http://www.w3.org/2000/svg"
   xmlns:sodipodi="http://sodipodi.sourceforge.net/DTD/sodipodi-0.dtd"
   xmlns:inkscape="http://www.inkscape.org/namespaces/inkscape"
   width="1000"
   height="426.07101"
   viewBox="0 0 1000 426.07102"
   id="svg2"
   version="1.1"
   inkscape:version="0.91 r13725"
   sodipodi:docname="Transformers Animated.svg">
  <defs
     id="defs4">
    <clipPath
       clipPathUnits="userSpaceOnUse"
       id="clipPath20">
      <path
         d="m 434.289,776.777 -62.652,162.36 -103.254,0.804 -150.883,223.699 546.352,-37.8 25.82,-73.66 1139.828,0 85.88,-155.481 349.28,14.981 -186.57,-275.895 -5.67,-23.367 52.3,-94.68 -26.97,-268.941 -1837.703,174.91 -85.367,49.02 z"
         id="path18"
         style="clip-rule:evenodd"
         inkscape:connector-curvature="0" />
    </clipPath>
    <linearGradient
       x1="-120.586"
       y1="0"
       x2="120.586"
       y2="0"
       gradientUnits="userSpaceOnUse"
       gradientTransform="matrix(9.86286,1.65048,-1.65048,9.86286,1340.91,710.467)"
       spreadMethod="pad"
       id="linearGradient34">
      <stop
         style="stop-opacity:1;stop-color:#ffffff"
         offset="0"
         id="stop22" />
      <stop
         style="stop-opacity:1;stop-color:#e9e9e9"
         offset="0.171875"
         id="stop24" />
      <stop
         style="stop-opacity:1;stop-color:#ffffff"
         offset="0.320313"
         id="stop26" />
      <stop
         style="stop-opacity:1;stop-color:#e9e9e9"
         offset="0.570313"
         id="stop28" />
      <stop
         style="stop-opacity:1;stop-color:#ffffff"
         offset="0.730469"
         id="stop30" />
      <stop
         style="stop-opacity:1;stop-color:#d3d2d2"
         offset="1"
         id="stop32" />
    </linearGradient>
    <clipPath
       clipPathUnits="userSpaceOnUse"
       id="clipPath44">
      <path
         d="m 1992.95,431.918 73.85,-145.453 22.45,223.992 -280.14,507.163 -74.7,-163.265 z"
         id="path42"
         style="clip-rule:evenodd"
         inkscape:connector-curvature="0" />
    </clipPath>
    <linearGradient
       x1="-48.297001"
       y1="0"
       x2="48.297001"
       y2="0"
       gradientUnits="userSpaceOnUse"
       gradientTransform="matrix(-2.84183,9.5877,-9.5877,-2.84183,1860.49,778.365)"
       spreadMethod="pad"
       id="linearGradient50">
      <stop
         style="stop-opacity:1;stop-color:#254aa5"
         offset="0"
         id="stop46" />
      <stop
         style="stop-opacity:1;stop-color:#0994dc"
         offset="1"
         id="stop48" />
    </linearGradient>
    <clipPath
       clipPathUnits="userSpaceOnUse"
       id="clipPath68">
      <path
         d="m 2066.8,286.465 -73.85,145.453 -1764.946,50.027 42.75,-24.543 z"
         id="path66"
         style="clip-rule:evenodd"
         inkscape:connector-curvature="0" />
    </clipPath>
    <linearGradient
       x1="-113.981"
       y1="0"
       x2="113.981"
       y2="0"
       gradientUnits="userSpaceOnUse"
       gradientTransform="matrix(9.99229,-0.392598,0.392598,9.99229,1411.56,363.14)"
       spreadMethod="pad"
       id="linearGradient76">
      <stop
         style="stop-opacity:1;stop-color:#127bca"
         offset="0"
         id="stop70" />
      <stop
         style="stop-opacity:1;stop-color:#127bca"
         offset="0.4854273"
         id="stop72" />
      <stop
         style="stop-opacity:1;stop-color:#33bdf2"
         offset="1"
         id="stop74" />
    </linearGradient>
  </defs>
  <sodipodi:namedview
     id="base"
     pagecolor="#ffffff"
     bordercolor="#666666"
     borderopacity="1.0"
     inkscape:pageopacity="0.0"
     inkscape:pageshadow="2"
     inkscape:zoom="0.35355339"
     inkscape:cx="612.1359"
     inkscape:cy="223.35375"
     inkscape:document-units="px"
     inkscape:current-layer="layer1"
     showgrid="false"
     units="px"
     inkscape:window-width="1366"
     inkscape:window-height="705"
     inkscape:window-x="-8"
     inkscape:window-y="-8"
     inkscape:window-maximized="1" />
  <metadata
     id="metadata7">
    <rdf:RDF>
      <cc:Work
         rdf:about="">
        <dc:format>image/svg+xml</dc:format>
        <dc:type
           rdf:resource="http://purl.org/dc/dcmitype/StillImage" />
        <dc:title></dc:title>
      </cc:Work>
    </rdf:RDF>
  </metadata>
  <g
     inkscape:label="Layer 1"
     inkscape:groupmode="layer"
     id="layer1"
     transform="translate(0,-626.29119)">
    <g
       id="g10"
       transform="matrix(4.6573148,0,0,-4.6573148,-54.723448,1168.2348)">
      <g
         id="g12"
         transform="scale(0.1,0.1)">
        <g
           id="g14">
          <g
             id="g16"
             clip-path="url(#clipPath20)">
            <path
               d="m 434.289,776.777 -62.652,162.36 -103.254,0.804 -150.883,223.699 546.352,-37.8 25.82,-73.66 1139.828,0 85.88,-155.481 349.28,14.981 -186.57,-275.895 -5.67,-23.367 52.3,-94.68 -26.97,-268.941 -1837.703,174.91 -85.367,49.02 259.609,304.05"
               style="fill:url(#linearGradient34);fill-opacity:1;fill-rule:nonzero;stroke:none"
               id="path36"
               inkscape:connector-curvature="0" />
          </g>
        </g>
        <g
           id="g38">
          <g
             id="g40"
             clip-path="url(#clipPath44)">
            <path
               d="m 1992.95,431.918 73.85,-145.453 22.45,223.992 -280.14,507.163 -74.7,-163.265 258.54,-422.437"
               style="fill:url(#linearGradient50);fill-opacity:1;fill-rule:nonzero;stroke:none"
               id="path52"
               inkscape:connector-curvature="0" />
          </g>
        </g>
        <path
           d="M 2045.98,649.992 1992.95,431.918 228.004,481.945 473.941,770 l -78.523,203.504 -108.559,0.851 -101.136,149.925 453.031,-31.33 26.398,-75.33 1143.958,0 -74.7,-163.265 463.21,19.856 -151.64,-224.219"
           style="fill:#254aa5;fill-opacity:1;fill-rule:evenodd;stroke:none"
           id="path54"
           inkscape:connector-curvature="0" />
        <path
           d="m 1323.93,810.824 25.1,135.235 -76.81,-0.575 -18.92,-137.695 -238.25,-10.207 -0.12,37.727 44.8,2.492 -48.59,72.672 C 992.313,880.398 964.5,829.906 945.188,794.578 l -140.29,-6 -102.437,112.809 58.902,1.109 -5.125,40.449 -75.41,-0.644 36.867,-157.469 -86.488,-3.707 -61.539,208.25 241.402,-0.387 c 12.918,-0.023 37.282,-12.664 39.282,-27.859 l 9.324,-68.137 c 2.246,-15.054 -15.059,-23.148 -27.106,-23.504 l -18.847,-0.308 46.761,-52.157 c 28.864,62.145 58.168,113.559 94.43,171.723 l 107.766,0.371 105.58,-157.668 7.88,157.004 244.17,-0.285 c 18.55,-0.047 34.64,-7.266 29.08,-27.191 L 1407.53,814.41 Z m -704.625,200.686 -92.68,0.72 77.23,-232.281 -83.601,-3.582 -91.309,236.613 -127.898,1.01 -44.18,65.49 348.391,-24.31 z M 1681.52,840.004 c -3.96,-10.188 -12.34,-14.375 -22.32,-14.809 l -202.41,-8.683 -15.43,31.726 158.45,2.739 c 5.28,11.777 10.58,23.539 15.88,35.308 l -129.77,-0.867 c -21.88,-0.121 -32,4.465 -28.82,19.02 l 21.24,64.324 c 3.16,14.258 23.98,19.375 36.14,19.355 l 232.83,-0.023 -20.1,-37.426 -159.69,-0.492 -11.02,-35.051 128.82,0.898 c 13.53,0.051 34.39,-4.019 24.81,-22.07 l -28.61,-53.949"
           style="fill:#ffffff;fill-opacity:1;fill-rule:evenodd;stroke:none"
           id="path56"
           inkscape:connector-curvature="0" />
        <path
           d="m 1961.94,472.555 47.13,193.781 111.44,164.781 L 519.809,762.516 312.168,519.324 1961.94,472.555"
           style="fill:#ed1c24;fill-opacity:1;fill-rule:evenodd;stroke:none"
           id="path58"
           inkscape:connector-curvature="0" />
        <path
           d="m 1941.77,535.43 c -3.08,-13.66 -8.45,-34.293 -24.68,-33.934 l -147.93,3.524 -17.16,62.925 132.46,-0.871 14.97,58.164 -100.33,-0.707 c -16.66,0 -31,18.297 -28.83,31.805 l 17.41,108.191 c 1.86,11.571 14.45,32.196 34.05,33.028 l 253.13,10.863 -50.43,-68.234 -174.45,-4.977 -7.81,-57.824 98.35,1.594 c 22.22,0.359 30,-20.719 26.98,-33.832 z m -961.731,-11.551 -68.676,1.648 6.367,136.766 62.473,1.02 21.257,47.691 -68.397,-1.949 -93.133,-181.86 -66.711,1.59 125.914,229.227 161.877,6.953 c 5.43,0.242 9.45,-1.871 12.13,-6.281 3.27,-5.114 2.95,-11.813 -0.97,-20.09 l -42.63,-89.508 c -6.34,-13.301 -22.55,-27.387 -38.075,-27.449 l -8.348,-0.032 z m -209.297,31.086 c -7.012,-12.676 -24.195,-25.52 -39.324,-25.16 l -142.441,3.41 c -15.266,0.305 -15.286,14.859 -8.504,24.969 l 112.25,167.195 c 7.687,11.492 24.281,24.781 38.797,25.434 l 128.585,5.546 c 14.844,0.586 13.34,-15.757 8.286,-24.875 z m -53.297,24.906 74.629,125.164 -52.394,-1.492 -77.246,-123.535 z m -72.785,120.957 -84.23,-2.394 -32.293,-42.864 84.308,0.86 -28.179,-41.352 -86.321,0.367 -59.257,-78.742 -76.379,1.852 164.414,203.621 173.218,7.316 z m 656.45,-184.613 -68.63,1.754 68.71,201.574 -51.55,-1.457 -70.89,-198.949 -66.86,1.566 74.59,195.582 -46.56,-1.328 -78.45,-193.035 -67.407,1.609 103.577,242.965 263.83,11.356 c 15.12,0.617 16.99,-18.075 13.59,-28.762 z m 144.66,207.461 -14.09,-52.992 89.9,1.461 -13.27,-49.637 -89.62,-0.629 -14.11,-53.043 114.44,-1.02 -33.42,-56.011 -167.46,3.992 79.7,263.582 174.65,7.449 -33.64,-60.488 z m 310.26,-218.332 -74.13,1.801 -55.08,166.718 61.29,1 8.66,55.977 -64.05,-1.828 -45.1,-219.664 -71.62,1.715 66.34,276.234 160.89,6.91 c 15.85,0.664 29.06,-14.004 25.73,-31.617 l -14.3,-107.262 c -1.51,-17.234 -13.32,-31.367 -31.2,-31.293 l -17.41,-0.144 49.98,-118.547"
           style="fill:#ffffff;fill-opacity:1;fill-rule:evenodd;stroke:none"
           id="path60"
           inkscape:connector-curvature="0" />
        <g
           id="g62">
          <g
             id="g64"
             clip-path="url(#clipPath68)">
            <path
               d="M 2066.8,286.465 1992.95,431.918 228.004,481.945 270.754,457.402 2066.8,286.465"
               style="fill:url(#linearGradient76);fill-opacity:1;fill-rule:nonzero;stroke:none"
               id="path78"
               inkscape:connector-curvature="0" />
          </g>
        </g>
        <path
           d="m 1921.79,396.117 c 11.03,-0.566 20.92,-2.015 30.69,-8.996 10.36,-7.391 28.78,-31.187 18.93,-44.023 -5.45,-7.098 -15.88,-5.559 -23.89,-4.957 z m 8.82,-78.441 38.28,-3.289 c 57.82,-4.996 28.96,64.367 -2.57,87.371 -13.62,9.933 -29.29,16.207 -43.56,16.762 l -37.87,1.464 z m -62.64,80.578 -8.74,22.355 -58.15,2.274 38.66,-98.637 58.86,-5.125 -8.59,22.344 -31.91,2.445 -6.67,17.215 30.16,-2.047 -8.69,22.332 -30.06,1.731 -6.53,16.679 z m -93.7,4.453 22.05,-1.074 -8.59,21.633 -70.57,2.738 8.35,-20.875 22.04,-1.09 29.67,-74.691 26.89,-2.332 z m -72.36,-33.148 -22.27,1.519 -0.72,28.555 z m 14.8,-19.036 13.2,-16.718 28.64,-2.492 -76.37,96.214 -24.14,1.125 -2.7,-87.949 24.25,-2.476 0.05,15.226 z m -197.32,1.622 23.93,-2.317 -14.23,48.051 47.06,-50.891 10.7,-0.922 1.68,48.289 31.16,-51.132 27.08,-2.34 -58.44,89.965 -24.64,1.035 0.87,-45.258 -43.66,46.93 -23.38,1.015 z m -59.78,83.543 -26.7,1.042 38.76,-81.25 27.08,-2.359 z m -114.05,-69.727 24.71,-2.328 -23,46.976 72.68,-51.273 25.88,-2.328 -42.27,80.383 -25.49,1.031 27.08,-48.379 -72.38,50.285 -24.33,1.031 z m -72.64,31.617 -22.27,1.531 0.64,22.282 z m 13.76,-15.086 12.5,-13.293 28.62,-2.496 -73.03,74.774 -58.29,2.019 30.2,-18.5 -0.5,-48.918 23.59,-2.453 0.22,11.66 36.69,-2.793"
           style="fill:#254aa5;fill-opacity:1;fill-rule:nonzero;stroke:none"
           id="path80"
           inkscape:connector-curvature="0" />
        <path
           d="m 1913.51,396.117 c 11.05,-0.566 20.95,-2.015 30.69,-8.996 10.35,-7.391 28.79,-31.187 18.95,-44.023 -5.46,-7.098 -15.88,-5.559 -23.9,-4.957 z m 8.83,-78.441 38.3,-3.289 c 57.81,-4.996 28.95,64.367 -2.59,87.371 -13.61,9.933 -29.29,16.207 -43.56,16.762 l -37.87,1.464 z m -62.63,80.578 -8.75,22.355 -58.16,2.274 38.67,-98.637 58.85,-5.125 -8.58,22.344 -31.9,2.445 -6.68,17.215 30.15,-2.047 -8.67,22.332 -30.07,1.731 -6.53,16.679 z m -93.71,4.453 22.05,-1.074 -8.59,21.633 -70.57,2.738 8.34,-20.875 22.05,-1.09 29.67,-74.691 26.89,-2.332 z m -72.35,-33.148 -22.29,1.519 -0.71,28.555 z m 14.79,-19.036 13.22,-16.718 28.62,-2.492 -76.37,96.214 -24.13,1.125 -2.72,-87.949 24.26,-2.476 0.04,15.226 z m -197.33,1.622 23.92,-2.317 -14.21,48.051 47.06,-50.891 10.71,-0.922 1.67,48.289 31.15,-51.132 27.09,-2.34 -58.44,89.965 -24.64,1.035 0.87,-45.258 -43.67,46.93 -23.38,1.015 z m -59.77,83.543 -26.7,1.042 38.77,-81.25 27.08,-2.359 z m -114.05,-69.727 24.71,-2.328 -23,46.976 72.7,-51.273 25.86,-2.328 -42.27,80.383 -25.49,1.031 27.1,-48.379 -72.41,50.285 -24.31,1.031 z m -72.64,31.617 -22.26,1.531 0.63,22.282 z m 13.76,-15.086 12.49,-13.293 28.65,-2.496 -73.05,74.774 -58.27,2.019 30.18,-18.5 -0.5,-48.918 23.58,-2.453 0.23,11.66 36.69,-2.793"
           style="fill:#ffffff;fill-opacity:1;fill-rule:nonzero;stroke:none"
           id="path82"
           inkscape:connector-curvature="0" />
      </g>
    </g>
  </g>
</svg>
